<svg width="53" height="52" viewBox="0 0 53 52" fill="none" xmlns="http://www.w3.org/2000/svg">
<rect x="0.5" width="52" height="52" rx="26" fill="#F7F8FA"/>
<path fill-rule="evenodd" clip-rule="evenodd" d="M26.9035 15C26.2467 15 25.7143 15.5324 25.7143 16.1892V24.4072H16.6892C16.0324 24.4072 15.5 24.9397 15.5 25.5964C15.5 26.2532 16.0324 26.7856 16.6892 26.7856H25.7143V35.8108C25.7143 36.4676 26.2467 37 26.9035 37C27.5603 37 28.0927 36.4676 28.0927 35.8108V26.7856H36.3108C36.9676 26.7856 37.5 26.2532 37.5 25.5964C37.5 24.9397 36.9676 24.4072 36.3108 24.4072H28.0927V16.1892C28.0927 15.5324 27.5603 15 26.9035 15Z" fill="#3F9E37"/>
</svg>
