<svg width="24" height="24" viewBox="0 0 24 24" fill="none" xmlns="http://www.w3.org/2000/svg">
<path d="M12 0C18.612 0 24 5.388 24 12C24 18.612 18.612 24 12 24C5.388 24 -9.53674e-07 18.612 -9.53674e-07 12C-9.53674e-07 5.388 5.388 0 12 0ZM8.652 12.636L12.888 16.872C13.068 17.052 13.296 17.136 13.524 17.136C13.752 17.136 13.98 17.052 14.16 16.872C14.508 16.524 14.508 15.948 14.16 15.6L10.56 12L14.16 8.4C14.508 8.052 14.508 7.476 14.16 7.128C13.812 6.78 13.236 6.78 12.888 7.128L8.652 11.364C8.292 11.712 8.292 12.288 8.652 12.636Z" fill="#E6E6E6"/>
</svg>
